<svg width="14" height="23" viewBox="0 0 14 23" fill="none" xmlns="http://www.w3.org/2000/svg">
<path fill-rule="evenodd" clip-rule="evenodd" d="M13.2196 9.77958C13.6716 10.2321 13.9254 10.8455 13.9254 11.485C13.9254 12.1245 13.6716 12.7379 13.2196 13.1904L4.11976 22.2935C3.66703 22.746 3.05307 23.0002 2.41296 23C1.77286 22.9998 1.15902 22.7454 0.706506 22.2927C0.253987 21.84 -0.000150795 21.226 6.71281e-08 20.5859C0.000150929 19.9458 0.254578 19.332 0.70731 18.8794L8.10175 11.485L0.70731 4.09056C0.267483 3.63561 0.0239423 3.02611 0.0291405 2.39334C0.0343387 1.76057 0.28786 1.15515 0.735102 0.707486C1.18234 0.259822 1.78752 0.00572869 2.42029 -6.56869e-05C3.05305 -0.00586007 3.66278 0.237106 4.11815 0.676503L13.2212 9.77797L13.2196 9.77958Z" fill="black"/>
</svg>
