<svg width="39" height="39" viewBox="0 0 39 39" fill="none" xmlns="http://www.w3.org/2000/svg">
<path fill-rule="evenodd" clip-rule="evenodd" d="M14.625 8.125C14.625 7.26305 14.9674 6.4364 15.5769 5.8269C16.1864 5.21741 17.013 4.875 17.875 4.875H21.125C21.987 4.875 22.8136 5.21741 23.4231 5.8269C24.0326 6.4364 24.375 7.26305 24.375 8.125V14.625H30.875C31.737 14.625 32.5636 14.9674 33.1731 15.5769C33.7826 16.1864 34.125 17.013 34.125 17.875V21.125C34.125 21.987 33.7826 22.8136 33.1731 23.4231C32.5636 24.0326 31.737 24.375 30.875 24.375H24.375V30.875C24.375 31.737 24.0326 32.5636 23.4231 33.1731C22.8136 33.7826 21.987 34.125 21.125 34.125H17.875C17.013 34.125 16.1864 33.7826 15.5769 33.1731C14.9674 32.5636 14.625 31.737 14.625 30.875V24.375H8.125C7.26305 24.375 6.4364 24.0326 5.8269 23.4231C5.21741 22.8136 4.875 21.987 4.875 21.125V17.875C4.875 17.013 5.21741 16.1864 5.8269 15.5769C6.4364 14.9674 7.26305 14.625 8.125 14.625H14.625V8.125Z" fill="black"/>
</svg>
