<svg width="15" height="9" viewBox="0 0 15 9" fill="none" xmlns="http://www.w3.org/2000/svg">
<path fill-rule="evenodd" clip-rule="evenodd" d="M8.54344 8.54292C8.25102 8.83498 7.85463 8.99902 7.44134 8.99902C7.02806 8.99902 6.63167 8.83498 6.33925 8.54292L0.456565 2.66231C0.164134 2.36974 -9.74485e-05 1.97299 4.33804e-08 1.55933C9.75352e-05 1.14567 0.164516 0.748997 0.457085 0.456566C0.749654 0.164134 1.14641 -9.74485e-05 1.56007 4.33803e-08C1.97372 9.75352e-05 2.3704 0.164516 2.66283 0.457085L7.44134 5.2356L12.2199 0.457085C12.5139 0.172856 12.9077 0.0154722 13.3167 0.0188315C13.7256 0.0221907 14.1168 0.186024 14.4061 0.475045C14.6954 0.764066 14.8596 1.15515 14.8633 1.56406C14.8671 1.97298 14.7101 2.367 14.4261 2.66127L8.54448 8.54396L8.54344 8.54292Z" fill="white"/>
</svg>
