<svg width="582" height="30" viewBox="0 0 582 30" fill="none" xmlns="http://www.w3.org/2000/svg">
<rect x="0.5" y="0.5" width="581" height="29" rx="7.5" stroke="#6C757D"/>
<path d="M17.75 8.875H21.9688C22.5711 8.87519 23.1619 9.04116 23.6762 9.35472C24.1906 9.66829 24.6087 10.1174 24.8848 10.6527C25.1609 11.1881 25.2844 11.7892 25.2416 12.3901C25.1989 12.9909 24.9916 13.5685 24.6425 14.0594C25.2481 14.4361 25.7143 14.9999 25.9707 15.6654C26.2271 16.3309 26.2597 17.0618 26.0634 17.7474C25.8671 18.433 25.4528 19.036 24.8831 19.4651C24.3134 19.8941 23.6194 20.1258 22.9062 20.125H17.75C17.5014 20.125 17.2629 20.0262 17.0871 19.8504C16.9113 19.6746 16.8125 19.4361 16.8125 19.1875V9.8125C16.8125 9.56386 16.9113 9.3254 17.0871 9.14959C17.2629 8.97377 17.5014 8.875 17.75 8.875ZM18.6875 15.4375V18.25H22.9062C23.2792 18.25 23.6369 18.1018 23.9006 17.8381C24.1643 17.5744 24.3125 17.2167 24.3125 16.8438C24.3125 16.4708 24.1643 16.1131 23.9006 15.8494C23.6369 15.5857 23.2792 15.4375 22.9062 15.4375H18.6875ZM21.9688 13.5625C22.3417 13.5625 22.6994 13.4143 22.9631 13.1506C23.2268 12.8869 23.375 12.5292 23.375 12.1562C23.375 11.7833 23.2268 11.4256 22.9631 11.1619C22.6994 10.8982 22.3417 10.75 21.9688 10.75H18.6875V13.5625H21.9688Z" fill="black"/>
<path d="M39.875 10.125H43.625M37.375 18.875H41.125M41.75 10.125L39.25 18.875" stroke="black" stroke-width="2" stroke-linecap="round" stroke-linejoin="round"/>
<path d="M58.6654 10.334V13.6673C58.6654 14.5514 59.0166 15.3992 59.6417 16.0243C60.2668 16.6495 61.1146 17.0007 61.9987 17.0007C62.8828 17.0007 63.7306 16.6495 64.3557 16.0243C64.9808 15.3992 65.332 14.5514 65.332 13.6673V10.334M57.332 19.6673H66.6654" stroke="black" stroke-width="2" stroke-linecap="round" stroke-linejoin="round"/>
<path fill-rule="evenodd" clip-rule="evenodd" d="M94.25 9.5H100.5C100.666 9.5 100.825 9.56585 100.942 9.68306C101.059 9.80027 101.125 9.95924 101.125 10.125C101.125 10.2908 101.059 10.4497 100.942 10.5669C100.825 10.6842 100.666 10.75 100.5 10.75H94.25C94.0842 10.75 93.9253 10.6842 93.8081 10.5669C93.6908 10.4497 93.625 10.2908 93.625 10.125C93.625 9.95924 93.6908 9.80027 93.8081 9.68306C93.9253 9.56585 94.0842 9.5 94.25 9.5ZM94.25 13.875H100.5C100.666 13.875 100.825 13.9408 100.942 14.0581C101.059 14.1753 101.125 14.3342 101.125 14.5C101.125 14.6658 101.059 14.8247 100.942 14.9419C100.825 15.0592 100.666 15.125 100.5 15.125H94.25C94.0842 15.125 93.9253 15.0592 93.8081 14.9419C93.6908 14.8247 93.625 14.6658 93.625 14.5C93.625 14.3342 93.6908 14.1753 93.8081 14.0581C93.9253 13.9408 94.0842 13.875 94.25 13.875ZM94.25 18.25H100.5C100.666 18.25 100.825 18.3158 100.942 18.4331C101.059 18.5503 101.125 18.7092 101.125 18.875C101.125 19.0408 101.059 19.1997 100.942 19.3169C100.825 19.4342 100.666 19.5 100.5 19.5H94.25C94.0842 19.5 93.9253 19.4342 93.8081 19.3169C93.6908 19.1997 93.625 19.0408 93.625 18.875C93.625 18.7092 93.6908 18.5503 93.8081 18.4331C93.9253 18.3158 94.0842 18.25 94.25 18.25ZM90.8125 9.5C90.7296 9.5 90.6501 9.46708 90.5915 9.40847C90.5329 9.34987 90.5 9.27038 90.5 9.1875C90.5 9.10462 90.5329 9.02513 90.5915 8.96653C90.6501 8.90792 90.7296 8.875 90.8125 8.875H91.4375C91.6125 8.875 91.75 9.0125 91.75 9.1875V11.0625C91.75 11.1454 91.7171 11.2249 91.6585 11.2835C91.5999 11.3421 91.5204 11.375 91.4375 11.375C91.3546 11.375 91.2751 11.3421 91.2165 11.2835C91.1579 11.2249 91.125 11.1454 91.125 11.0625V9.50937L90.8125 9.5ZM90.8125 13.25H92.0625C92.2375 13.25 92.375 13.3875 92.375 13.5625V13.875L91.3125 15.125H92.0625C92.2375 15.125 92.375 15.2625 92.375 15.4375C92.375 15.6125 92.235 15.75 92.0625 15.75H90.8125C90.6375 15.75 90.5 15.6125 90.5 15.4375V15.125L91.5625 13.875H90.8125C90.6375 13.875 90.5 13.7375 90.5 13.5625C90.5 13.3875 90.6244 13.25 90.8125 13.25ZM92.0625 20.125H90.8125C90.7296 20.125 90.6501 20.0921 90.5915 20.0335C90.5329 19.9749 90.5 19.8954 90.5 19.8125C90.5 19.7296 90.5329 19.6501 90.5915 19.5915C90.6501 19.5329 90.7296 19.5 90.8125 19.5H91.75V19.1875H90.8125C90.7296 19.1875 90.6501 19.1546 90.5915 19.096C90.5329 19.0374 90.5 18.9579 90.5 18.875C90.5 18.7921 90.5329 18.7126 90.5915 18.654C90.6501 18.5954 90.7296 18.5625 90.8125 18.5625H91.75V18.25H90.8125C90.7296 18.25 90.6501 18.2171 90.5915 18.1585C90.5329 18.0999 90.5 18.0204 90.5 17.9375C90.5 17.8546 90.5329 17.7751 90.5915 17.7165C90.6501 17.6579 90.7296 17.625 90.8125 17.625H92.0625C92.1454 17.625 92.2249 17.6579 92.2835 17.7165C92.3421 17.7751 92.375 17.8546 92.375 17.9375V19.8125C92.375 19.8954 92.3421 19.9749 92.2835 20.0335C92.2249 20.0921 92.1454 20.125 92.0625 20.125Z" fill="black"/>
<g clip-path="url(#clip0_656_8242)">
<path d="M188.582 10.5007L189.749 9.33398C190.332 8.75065 191.499 8.75065 192.082 9.33398L192.665 9.91732C193.249 10.5007 193.249 11.6673 192.665 12.2507L189.749 15.1673C189.165 15.7507 187.999 15.7507 187.415 15.1673M187.415 17.5007L186.249 18.6673C185.665 19.2507 184.499 19.2507 183.915 18.6673L183.332 18.084C182.749 17.5007 182.749 16.334 183.332 15.7507L186.249 12.834C186.832 12.2507 187.999 12.2507 188.582 12.834" stroke="black" stroke-width="2" stroke-linecap="round" stroke-linejoin="round"/>
</g>
<path d="M218.832 11.1243C218.608 11.1243 218.42 11.0483 218.269 10.8963C218.117 10.7443 218.041 10.5565 218.041 10.3327V9.54102C218.041 9.31671 218.117 9.12882 218.269 8.97735C218.421 8.82588 218.609 8.74988 218.832 8.74935H220.416V7.95768H218.437C218.331 7.95768 218.239 7.9181 218.159 7.83893C218.08 7.75977 218.041 7.6674 218.041 7.56185C218.041 7.45629 218.08 7.36393 218.159 7.28477C218.239 7.2056 218.331 7.16602 218.437 7.16602H220.416C220.64 7.16602 220.828 7.24202 220.98 7.39402C221.132 7.54602 221.208 7.7339 221.207 7.95768V8.74935C221.207 8.97365 221.131 9.16181 220.979 9.31381C220.827 9.46581 220.639 9.54154 220.416 9.54102H218.832V10.3327H220.812C220.917 10.3327 221.009 10.3723 221.089 10.4514C221.168 10.5306 221.207 10.623 221.207 10.7285C221.207 10.8341 221.168 10.9264 221.089 11.0056C221.009 11.0848 220.917 11.1243 220.812 11.1243H218.832ZM209.273 19.8327C208.917 19.8327 208.656 19.6809 208.492 19.3775C208.327 19.074 208.337 18.7705 208.521 18.4671L211.312 14.0733L208.778 10.0952C208.593 9.8049 208.583 9.50803 208.748 9.20456C208.913 8.90109 209.167 8.74935 209.511 8.74935C209.67 8.74935 209.815 8.78577 209.947 8.8586C210.079 8.93143 210.184 9.03356 210.263 9.16497L212.459 12.7077H212.539L214.716 9.16497C214.795 9.03303 214.904 8.9309 215.043 8.8586C215.181 8.78629 215.323 8.74988 215.468 8.74935C215.824 8.74935 216.081 8.90109 216.24 9.20456C216.398 9.50803 216.385 9.8115 216.2 10.115L213.667 14.0733L216.477 18.4671C216.662 18.7705 216.668 19.074 216.497 19.3775C216.325 19.6809 216.068 19.8327 215.725 19.8327C215.567 19.8327 215.422 19.7965 215.29 19.7242C215.158 19.6519 215.052 19.5495 214.973 19.4171L212.539 15.5379H212.459L210.025 19.4171C209.946 19.549 209.837 19.6514 209.698 19.7242C209.559 19.7971 209.417 19.8332 209.273 19.8327Z" fill="black"/>
<path d="M243.833 20.8327C243.609 20.8327 243.421 20.7567 243.27 20.6047C243.118 20.4527 243.042 20.2648 243.042 20.041V19.2493C243.042 19.025 243.118 18.8372 243.27 18.6857C243.422 18.5342 243.61 18.4582 243.833 18.4577H245.417V17.666H243.438C243.332 17.666 243.24 17.6264 243.16 17.5473C243.081 17.4681 243.042 17.3757 243.042 17.2702C243.042 17.1646 243.081 17.0723 243.16 16.9931C243.24 16.9139 243.332 16.8743 243.438 16.8743H245.417C245.641 16.8743 245.829 16.9503 245.981 17.1023C246.133 17.2543 246.209 17.4422 246.208 17.666V18.4577C246.208 18.682 246.132 18.8701 245.98 19.0221C245.828 19.1741 245.64 19.2499 245.417 19.2493H243.833V20.041H245.813C245.918 20.041 246.01 20.0806 246.09 20.1598C246.169 20.2389 246.208 20.3313 246.208 20.4368C246.208 20.5424 246.169 20.6348 246.09 20.7139C246.01 20.7931 245.918 20.8327 245.813 20.8327H243.833ZM234.274 19.2493C233.918 19.2493 233.657 19.0976 233.492 18.7941C233.327 18.4907 233.337 18.1872 233.522 17.8837L236.313 13.49L233.779 9.51185C233.594 9.22157 233.584 8.9247 233.749 8.62122C233.914 8.31775 234.168 8.16602 234.512 8.16602C234.671 8.16602 234.816 8.20243 234.948 8.27527C235.08 8.3481 235.185 8.45022 235.264 8.58164L237.46 12.1243H237.54L239.717 8.58164C239.796 8.4497 239.905 8.34757 240.044 8.27527C240.182 8.20296 240.324 8.16654 240.469 8.16602C240.825 8.16602 241.082 8.31775 241.241 8.62122C241.399 8.9247 241.386 9.22817 241.201 9.53164L238.668 13.49L241.478 17.8837C241.663 18.1872 241.669 18.4907 241.498 18.7941C241.326 19.0976 241.069 19.2493 240.726 19.2493C240.568 19.2493 240.423 19.2132 240.291 19.1409C240.159 19.0686 240.053 18.9662 239.974 18.8337L237.54 14.9546H237.46L235.026 18.8337C234.947 18.9657 234.838 19.0681 234.699 19.1409C234.56 19.2137 234.418 19.2499 234.274 19.2493Z" fill="black"/>
<path d="M114 9.5H122.125V10.75H114V9.5ZM111.812 11.0625C111.564 11.0625 111.325 10.9637 111.15 10.7879C110.974 10.6121 110.875 10.3736 110.875 10.125C110.875 9.87636 110.974 9.6379 111.15 9.46209C111.325 9.28627 111.564 9.1875 111.812 9.1875C112.061 9.1875 112.3 9.28627 112.475 9.46209C112.651 9.6379 112.75 9.87636 112.75 10.125C112.75 10.3736 112.651 10.6121 112.475 10.7879C112.3 10.9637 112.061 11.0625 111.812 11.0625ZM111.812 15.4375C111.564 15.4375 111.325 15.3387 111.15 15.1629C110.974 14.9871 110.875 14.7486 110.875 14.5C110.875 14.2514 110.974 14.0129 111.15 13.8371C111.325 13.6613 111.564 13.5625 111.812 13.5625C112.061 13.5625 112.3 13.6613 112.475 13.8371C112.651 14.0129 112.75 14.2514 112.75 14.5C112.75 14.7486 112.651 14.9871 112.475 15.1629C112.3 15.3387 112.061 15.4375 111.812 15.4375ZM111.812 19.75C111.564 19.75 111.325 19.6512 111.15 19.4754C110.974 19.2996 110.875 19.0611 110.875 18.8125C110.875 18.5639 110.974 18.3254 111.15 18.1496C111.325 17.9738 111.564 17.875 111.812 17.875C112.061 17.875 112.3 17.9738 112.475 18.1496C112.651 18.3254 112.75 18.5639 112.75 18.8125C112.75 19.0611 112.651 19.2996 112.475 19.4754C112.3 19.6512 112.061 19.75 111.812 19.75ZM114 13.875H122.125V15.125H114V13.875ZM114 18.25H122.125V19.5H114V18.25Z" fill="black"/>
<defs>
<clipPath id="clip0_656_8242">
<rect width="14" height="14" fill="white" transform="translate(181 7)"/>
</clipPath>
</defs>
</svg>
